<?xml version="1.0" standalone="no"?>
<!DOCTYPE svg PUBLIC "-//W3C//DTD SVG 20010904//EN"
 "http://www.w3.org/TR/2001/REC-SVG-20010904/DTD/svg10.dtd">
<svg version="1.0" xmlns="http://www.w3.org/2000/svg"
 width="704.000000pt" height="704.000000pt" viewBox="0 0 704.000000 704.000000"
 preserveAspectRatio="xMidYMid meet">
<metadata>
Created by potrace 1.11, written by Peter Selinger 2001-2013
</metadata>
<g transform="translate(0.000000,704.000000) scale(0.100000,-0.100000)"
fill="#000000" stroke="none">
<path d="M6410 5470 l0 -150 -45 0 -45 0 0 -155 0 -155 -35 0 -35 0 0 -150 0
-150 -30 0 -30 0 0 195 0 195 -385 0 c-250 0 -385 -4 -385 -10 0 -5 9 -10 20
-10 20 0 20 -7 20 -505 l0 -505 -520 0 -520 0 0 -722 c0 -702 -1 -724 -20
-748 -11 -14 -20 -29 -20 -33 0 -4 -8 -20 -19 -35 -10 -15 -57 -85 -104 -157
-142 -215 -222 -285 -279 -242 -52 40 -99 222 -133 517 -3 30 -8 66 -10 80 -2
14 -6 54 -10 90 -3 36 -8 81 -10 100 -2 19 -7 71 -10 115 -3 44 -8 103 -10
130 -3 28 -7 88 -9 135 -3 47 -8 128 -11 180 -3 52 -8 161 -10 242 l-4 147 32
7 c40 10 38 9 62 19 11 4 54 21 95 37 97 38 204 97 257 143 35 30 129 156 123
167 0 2 10 29 24 60 14 32 27 68 30 80 2 13 9 51 16 86 15 72 9 178 -11 210
-27 43 -142 88 -253 98 -132 12 -237 -25 -310 -108 -41 -47 -82 -139 -91 -204
-14 -96 -17 -140 -22 -339 -3 -121 -8 -223 -12 -226 -5 -4 -189 -55 -273 -75
-10 -2 -28 -6 -40 -10 -13 -3 -32 -7 -44 -9 -11 -3 -90 13 -175 35 -85 23
-162 43 -172 45 -60 14 -57 5 -58 158 -2 328 -16 448 -67 555 -37 78 -121 147
-206 169 -54 14 -177 11 -242 -6 -160 -41 -186 -74 -179 -221 9 -205 96 -386
237 -496 57 -45 351 -174 395 -174 13 0 13 -99 -2 -385 -10 -203 -26 -419 -31
-424 -14 -15 -182 138 -274 249 -26 31 -40 40 -53 35 -9 -4 -17 -12 -17 -17 0
-32 205 -242 288 -295 l54 -35 -6 -66 c-14 -144 -25 -238 -45 -392 -6 -41 -12
-84 -15 -95 -2 -11 -7 -40 -10 -65 -13 -81 -57 -206 -82 -234 -20 -21 -32 -26
-56 -22 -42 6 -116 74 -175 161 -16 22 -31 42 -34 45 -3 3 -36 55 -73 115 -38
61 -79 127 -92 147 l-24 38 0 420 0 420 -115 0 -115 0 0 300 0 300 -115 0
-115 0 0 -300 0 -300 -80 0 -80 0 0 660 0 660 -370 0 -370 0 0 -450 0 -450
-35 0 -35 0 0 135 0 135 -35 0 -35 0 0 140 0 140 -200 0 -200 0 0 -140 0 -140
-40 0 -40 0 0 -135 0 -135 -45 0 -45 0 0 -905 0 -905 1223 0 c2135 0 2630 -1
4090 0 l1427 0 0 1315 0 1315 -45 0 -45 0 0 150 0 150 -45 0 -45 0 0 155 0
155 -45 0 -45 0 0 150 0 150 -110 0 -110 0 0 -150z m-3737 -759 c93 -29 160
-112 185 -226 19 -87 23 -125 29 -349 l6 -218 -24 7 c-112 32 -305 118 -356
158 -41 32 -104 102 -125 140 -31 55 -66 137 -72 168 -2 13 -9 44 -15 69 -14
59 -14 153 0 184 31 66 250 106 372 67z m1534 3 c140 -32 159 -57 149 -187
-12 -165 -89 -338 -186 -417 -71 -59 -279 -159 -384 -184 l-28 -7 6 213 c8
305 18 371 66 455 70 122 204 167 377 127z m-1182 -889 c33 -9 67 -19 75 -20
8 -2 60 -15 115 -29 68 -18 101 -23 104 -15 2 8 5 8 10 1 6 -10 36 -4 261 53
8 2 39 11 68 19 l52 14 1 -36 c4 -122 20 -458 24 -502 2 -19 6 -82 10 -140 4
-58 8 -118 10 -135 1 -16 6 -66 10 -110 3 -44 8 -91 10 -105 2 -14 6 -54 10
-90 4 -36 8 -76 10 -90 2 -14 6 -45 10 -70 29 -231 79 -423 114 -444 6 -4 11
-11 11 -17 0 -5 -234 -9 -605 -9 -333 0 -605 3 -605 6 0 3 9 17 20 31 31 40
74 200 94 353 3 25 8 54 10 65 2 11 7 51 11 88 3 37 8 77 10 87 4 19 20 179
24 231 1 13 13 15 79 13 89 -3 181 24 314 92 72 37 76 40 62 58 -13 19 -17 18
-111 -26 -121 -57 -149 -66 -226 -74 -60 -6 -124 7 -113 24 2 4 7 54 11 112 3
58 8 125 10 150 5 61 16 290 20 414 2 56 4 107 4 115 1 7 7 11 14 8 6 -2 39
-12 72 -22z m-752 -1357 c58 -103 177 -268 230 -320 l50 -48 -162 0 -161 0 0
215 c0 118 2 215 4 215 2 0 20 -28 39 -62z m2147 -153 l0 -215 -161 0 -160 0
53 54 c63 65 77 84 154 201 79 121 82 127 96 153 6 12 13 22 15 22 1 0 3 -97
3 -215z"/>
<path d="M607 2032 c-35 -39 -14 -44 29 -7 26 23 27 25 8 25 -11 0 -28 -8 -37
-18z"/>
<path d="M3532 2030 c-41 -38 -18 -43 25 -5 20 17 23 24 12 25 -8 0 -25 -9
-37 -20z"/>
<path d="M4098 2039 c-10 -5 -18 -17 -18 -24 0 -17 12 -19 26 -5 6 6 21 6 43
-3 29 -11 34 -10 47 8 10 14 11 21 3 24 -6 2 -14 -1 -18 -7 -5 -8 -15 -7 -35
3 -16 8 -29 15 -30 15 0 0 -9 -5 -18 -11z"/>
<path d="M259 1925 c-2 -187 -2 -187 24 -183 22 3 24 8 26 71 1 25 4 27 41 27
33 0 40 3 40 20 0 17 -7 20 -39 20 -28 0 -40 5 -43 18 -8 31 3 42 43 42 32 0
39 3 39 20 0 18 -7 20 -65 20 l-65 0 -1 -55z"/>
<path d="M541 1870 c-46 -124 -47 -130 -26 -130 9 0 18 12 22 30 5 29 8 30 58
30 49 0 53 -2 65 -30 7 -16 19 -30 26 -30 18 0 18 10 0 57 -8 21 -26 71 -41
111 -39 105 -52 100 -104 -38z m78 20 c7 -27 12 -53 12 -57 -1 -8 -71 -12 -71
-4 0 14 35 111 40 111 3 0 12 -22 19 -50z"/>
<path d="M795 1970 c-3 -5 -3 -11 2 -12 4 0 13 -2 18 -3 6 -2 20 -3 33 -4 21
-1 22 -4 22 -106 0 -87 3 -105 15 -105 12 0 15 18 15 105 0 112 0 113 56 106
7 -1 14 5 18 14 4 13 -8 15 -84 15 -49 0 -92 -4 -95 -10z"/>
<path d="M1095 1968 c-3 -7 -4 -60 -2 -118 2 -84 5 -105 17 -108 13 -2 15 16
15 114 0 85 -3 118 -12 121 -7 3 -15 -1 -18 -9z"/>
<path d="M1276 1972 c-3 -5 -5 -60 -4 -121 1 -85 5 -111 15 -111 14 0 16 17
14 129 -1 41 1 72 4 69 3 -2 22 -47 43 -99 21 -52 45 -95 53 -97 9 -1 27 30
54 99 22 55 42 102 45 104 3 2 4 -44 3 -101 -2 -87 0 -104 12 -104 15 0 16 7
16 95 0 146 1 145 -24 145 -20 0 -29 -14 -62 -94 -22 -52 -42 -93 -44 -90 -3
2 -21 44 -40 92 -28 67 -41 88 -58 90 -11 2 -24 -1 -27 -6z"/>
<path d="M1729 1953 c-62 -159 -77 -213 -63 -213 9 0 21 14 27 30 11 28 15 30
63 30 49 0 53 -2 63 -30 5 -17 17 -30 27 -30 9 0 14 6 12 13 -3 6 -22 60 -43
120 -30 85 -42 107 -57 107 -11 0 -23 -11 -29 -27z m48 -61 c20 -59 17 -71
-17 -68 -16 1 -32 5 -35 8 -3 3 1 29 11 57 18 57 22 57 41 3z"/>
<path d="M2193 1968 c-54 -26 -74 -134 -35 -187 37 -51 143 -53 150 -3 3 22
-12 30 -23 12 -10 -17 -61 -11 -78 8 -25 27 -23 104 3 127 18 16 27 17 60 8
36 -9 40 -8 40 8 0 35 -68 51 -117 27z"/>
<path d="M2439 1969 c-1 -17 -1 -211 0 -221 1 -5 8 -8 16 -8 11 0 15 13 15 54
0 50 2 55 21 51 31 -6 44 -20 59 -65 13 -38 40 -56 40 -25 0 19 -20 66 -38 87
-12 14 -11 18 7 28 26 13 29 71 5 91 -23 19 -124 25 -125 8z m103 -32 c21 -33
-4 -67 -51 -67 -18 0 -21 6 -21 45 l0 45 32 -5 c18 -4 36 -11 40 -18z"/>
<path d="M2729 1968 c0 -7 -1 -61 -2 -121 -2 -91 0 -107 14 -107 13 0 15 18
16 120 0 95 -2 120 -13 120 -8 0 -14 -6 -15 -12z"/>
<path d="M2923 1970 c-48 -19 -32 -102 22 -116 61 -15 72 -84 14 -84 -17 0
-39 5 -50 10 -16 9 -19 7 -19 -9 0 -34 88 -40 128 -9 29 24 3 108 -35 108 -14
0 -63 39 -63 50 0 5 7 16 16 25 15 15 27 14 72 -2 6 -3 12 2 12 10 0 26 -52
35 -97 17z"/>
<path d="M3135 1971 c-8 -14 12 -23 43 -19 l27 3 2 -95 c2 -126 1 -120 17
-120 11 0 14 17 14 78 0 140 -2 132 37 132 24 0 35 5 35 15 0 12 -16 15 -84
15 -47 0 -87 -4 -91 -9z"/>
<path d="M3473 1968 c-36 -17 -56 -68 -51 -127 6 -60 27 -88 74 -97 83 -15
130 25 133 116 2 55 -1 63 -28 90 -23 23 -38 30 -68 29 -21 0 -48 -5 -60 -11z
m99 -31 c34 -26 35 -118 2 -151 -20 -20 -78 -21 -98 -1 -32 33 -32 110 2 148
18 20 69 22 94 4z"/>
<path d="M3740 1978 c0 -4 49 -149 70 -205 8 -22 19 -33 31 -33 10 0 19 1 19
3 0 2 18 52 40 113 45 124 45 124 26 124 -10 0 -26 -35 -47 -99 -18 -55 -36
-98 -40 -96 -3 3 -12 26 -19 52 -7 27 -16 53 -19 58 -3 6 -11 26 -16 45 -6 19
-18 36 -28 38 -9 2 -17 2 -17 0z"/>
<path d="M4085 1873 c-21 -59 -40 -114 -43 -120 -9 -28 26 -11 38 17 11 28 16
30 62 30 46 0 51 -2 61 -30 7 -18 19 -30 29 -30 16 0 16 4 -4 58 -12 31 -31
84 -43 117 -15 42 -28 61 -41 63 -16 2 -26 -15 -59 -105z m95 -44 c0 -4 -69
-5 -77 0 -1 1 8 29 19 63 l21 61 18 -59 c10 -32 19 -62 19 -65z"/>
<path d="M4413 1970 c-32 -13 -54 -52 -57 -103 -6 -86 41 -134 120 -124 51 7
82 41 89 100 12 103 -60 164 -152 127z m101 -39 c23 -26 25 -102 2 -135 -22
-35 -87 -37 -110 -4 -23 33 -21 113 4 138 26 26 81 26 104 1z"/>
<path d="M4860 1823 l0 -78 32 -2 c41 -3 58 12 58 52 0 38 -21 60 -50 52 -19
-5 -24 3 -21 30 1 6 -3 14 -9 18 -6 4 -10 -21 -10 -72z m70 -27 c0 -51 -43
-56 -50 -6 -5 31 1 40 25 40 22 0 25 -4 25 -34z"/>
<path d="M5139 1878 c-4 -89 -2 -137 6 -135 6 2 11 15 11 28 1 13 2 28 3 34 0
5 12 -7 26 -28 14 -20 30 -37 35 -37 14 0 13 2 -15 40 -14 19 -25 36 -25 39 0
3 11 19 25 35 14 16 22 32 19 35 -3 3 -21 -12 -39 -33 l-33 -40 3 37 c2 20 0
37 -6 37 -5 0 -9 -6 -10 -12z"/>
<path d="M5259 1865 c0 -14 -1 -38 -1 -55 0 -72 -1 -70 45 -70 28 0 37 3 28 9
-8 5 -23 8 -33 6 -10 -2 -19 -1 -19 3 -9 46 -6 52 23 52 17 0 27 4 23 10 -4 6
-10 8 -15 5 -17 -10 -40 7 -36 28 2 16 10 22 29 22 14 0 29 3 33 8 4 4 -11 7
-34 7 -38 0 -42 -2 -43 -25z"/>
<path d="M5370 1815 l0 -75 41 0 c25 0 38 4 34 10 -4 6 -12 10 -18 9 -34 -4
-37 2 -37 66 0 37 -4 65 -10 65 -6 0 -10 -32 -10 -75z"/>
<path d="M5469 1885 c-1 -5 -2 -40 -3 -78 l-1 -67 38 0 c20 0 37 5 37 11 0 7
-10 9 -25 7 -30 -6 -38 15 -32 74 3 31 -10 82 -14 53z"/>
<path d="M5564 1818 l1 -73 40 -3 c22 -2 37 0 33 4 -4 4 -18 7 -30 8 -17 1
-24 8 -26 29 -3 23 0 27 22 27 14 0 26 4 26 9 0 5 -11 8 -26 6 -22 -2 -25 1
-22 24 2 21 8 26 31 25 15 -1 27 3 27 7 0 5 -18 9 -39 9 l-39 0 2 -72z"/>
<path d="M5679 1888 c-6 -14 -3 -148 3 -148 4 0 8 13 8 29 0 17 4 32 9 36 12
7 38 -19 46 -45 3 -11 11 -20 16 -20 12 0 11 6 -5 38 -12 23 -12 31 -1 52 12
21 11 28 -2 43 -13 13 -70 25 -74 15z m59 -42 c-2 -13 -12 -22 -25 -24 -19 -3
-23 1 -23 21 0 14 6 27 13 30 22 7 38 -5 35 -27z"/>
<path d="M5844 1873 c2 -10 12 -44 21 -76 19 -69 35 -70 52 -3 16 63 20 66 29
20 8 -45 21 -74 34 -74 5 0 16 26 25 58 9 31 18 65 21 75 3 9 1 17 -4 17 -5 0
-15 -21 -22 -47 -20 -79 -22 -80 -39 -19 -9 33 -21 61 -27 63 -7 2 -16 -22
-24 -59 l-13 -63 -13 30 c-7 17 -13 38 -14 47 0 25 -11 48 -22 48 -5 0 -7 -8
-4 -17z"/>
<path d="M6059 1884 c-5 -40 -3 -144 3 -144 9 0 10 17 9 94 0 42 -9 77 -12 50z"/>
<path d="M6111 1815 l-1 -75 41 0 c25 0 38 4 34 10 -4 6 -16 10 -28 8 -20 -3
-22 2 -25 65 -4 91 -20 85 -21 -8z"/>
<path d="M6209 1883 c-1 -16 -1 -84 0 -118 1 -22 6 -25 36 -25 19 0 35 5 35
11 0 6 -6 9 -12 6 -30 -10 -45 11 -43 62 1 27 -2 55 -6 63 -7 10 -9 10 -10 1z"/>
<path d="M6309 1885 c-5 -38 -3 -145 3 -145 5 0 8 17 9 38 0 20 2 50 3 65 2
26 -12 64 -15 42z"/>
<path d="M6391 1871 c-6 -11 -11 -26 -11 -33 0 -7 -6 -24 -13 -38 -24 -46 -27
-60 -13 -60 8 0 16 9 19 20 4 14 14 20 35 20 22 0 32 -6 37 -20 3 -11 11 -20
16 -20 6 0 7 9 3 23 -40 127 -53 146 -73 108z m39 -66 c0 -6 -9 -11 -20 -12
-22 -2 -23 0 -13 48 l7 34 12 -30 c7 -16 13 -35 14 -40z"/>
<path d="M6499 1888 c-1 -2 -2 -36 -3 -75 -2 -89 12 -98 16 -10 l3 62 24 -62
c13 -35 27 -63 31 -63 4 0 19 27 33 60 15 33 28 60 30 60 2 0 1 -27 -1 -60 -3
-37 0 -60 6 -60 13 0 18 39 14 103 -5 65 -25 60 -55 -15 l-24 -62 -23 62 c-13
35 -29 62 -36 62 -8 0 -14 -1 -15 -2z"/>
<path d="M6692 1878 c-21 -21 -13 -45 24 -67 42 -25 40 -46 -4 -46 -37 0 -38
-19 -1 -23 31 -3 48 9 54 37 3 17 -4 27 -30 43 -36 21 -40 26 -27 43 8 13 22
13 41 1 9 -6 12 -5 9 5 -6 18 -50 23 -66 7z"/>
<path d="M4970 1840 c0 -5 7 -28 16 -50 9 -22 14 -51 12 -65 -8 -39 7 -29 27
18 39 94 42 107 27 107 -5 0 -15 -19 -22 -42 l-13 -43 -13 30 c-7 17 -13 36
-14 43 0 14 -20 17 -20 2z"/>
</g>
</svg>
